<svg width="1903" height="921" viewBox="0 0 1903 921" fill="none" xmlns="http://www.w3.org/2000/svg">
<g clip-path="url(#clip0_75_38)">
<rect x="0.5" y="0.5" width="1902" height="920" rx="2.5" stroke="white" stroke-opacity="0.2"/>
<rect x="1137.5" y="173.5" width="558" height="300" rx="6.5" stroke="white" stroke-opacity="0.2"/>
<rect x="1127.5" y="163.5" width="578" height="321" rx="6.5" stroke="white" stroke-opacity="0.2"/>
<line y1="99.5" x2="1903" y2="99.5" stroke="white" stroke-opacity="0.2"/>
<path d="M1903 413.5H1704.5" stroke="white" stroke-opacity="0.2"/>
<line x1="198.5" y1="100" x2="198.5" y2="921" stroke="white" stroke-opacity="0.2"/>
<line x1="571.5" y1="414" x2="571.5" y2="921" stroke="white" stroke-opacity="0.2"/>
<line x1="951.5" y1="414" x2="951.5" y2="921" stroke="white" stroke-opacity="0.2"/>
<line x1="1331.5" y1="487" x2="1331.5" y2="921" stroke="white" stroke-opacity="0.2"/>
<line x1="1705.5" y1="57" x2="1705.5" y2="921" stroke="white" stroke-opacity="0.2"/>
<line y1="56.5" x2="1903" y2="56.5" stroke="white" stroke-opacity="0.2"/>
<line x1="199" y1="348.5" x2="1127" y2="348.5" stroke="white" stroke-opacity="0.2"/>
<line x1="199" y1="163.5" x2="1707" y2="163.5" stroke="white" stroke-opacity="0.2"/>
<line x1="202" y1="413.5" x2="1127" y2="413.5" stroke="white" stroke-opacity="0.2"/>
</g>
<defs>
<clipPath id="clip0_75_38">
<rect width="1903" height="921" rx="2" fill="white"/>
</clipPath>
</defs>
</svg>
