<svg width="45" height="45" viewBox="0 0 45 45" fill="none" xmlns="http://www.w3.org/2000/svg">
<g clip-path="url(#clip0_1_6)">
<path d="M0.620638 21.3338C0.620638 21.3338 1.63651 21.1669 2.05501 21.6036C2.47389 22.0408 2.19939 22.9453 1.64345 22.9605C1.08751 22.9793 0.573763 23.0786 0.209075 22.6907C-0.1558 22.3033 -0.0579249 21.5248 0.620638 21.3338M11.6475 27.5072C11.5496 27.5259 11.4459 27.4734 11.34 27.3966C10.6118 26.3816 10.3487 22.911 10.0144 22.7044C9.66751 22.4899 8.4122 24.6272 5.91526 24.3975C4.87107 24.3019 3.80851 23.6248 3.18282 23.1563C3.24095 22.3676 3.25107 20.5262 4.80639 21.1251C5.75101 21.4886 7.36895 22.4874 8.78982 20.6938C10.3607 18.7103 11.2271 19.2864 11.7467 19.7177C12.2663 20.1489 11.9201 22.3913 12.6951 21.7644C13.47 21.1376 16.5988 17.2451 16.5988 17.2451C16.5988 17.2451 19.0213 14.802 19.3922 17.3708C19.7633 19.9391 21.3428 22.7852 21.7613 22.7042C22.1801 22.6236 27.0531 12.7193 27.7509 12.0804C28.4488 11.4413 30.7982 11.5253 30.6866 13.1644C30.5749 14.8035 30.3358 24.9919 30.3358 24.9919C30.3358 24.9919 30.0602 27.8627 30.5091 26.3284C30.6951 25.6924 30.8953 25.1184 31.1451 24.4489C32.3477 20.5988 34.3963 14.0214 35.4171 10.6324C35.6518 9.82144 35.8539 9.12544 36.0107 8.59031L36.0109 8.58881C36.0618 8.37945 36.1226 8.17265 36.1933 7.96913C36.2786 7.68188 36.3364 7.49175 36.3542 7.44169C36.3998 7.31419 36.5276 7.21819 36.7074 7.14731C36.8878 7.03294 37.0815 7.02731 37.3009 7.02169C37.8673 6.97106 38.5959 7.04419 39.2511 7.2315C39.4419 7.2315 39.6495 7.30088 39.8458 7.44113V7.44131C39.8458 7.44131 39.8576 7.44131 39.8741 7.46006C39.8784 7.46006 39.8831 7.46006 39.8878 7.47881C39.9289 7.50694 39.9953 7.56319 40.0721 7.65694C40.0744 7.65694 40.0768 7.65694 40.0796 7.67569C40.1115 7.71506 40.1436 7.76006 40.1762 7.81256C40.5422 8.34938 40.7668 9.33881 40.5414 11.0934C39.9797 15.4723 39.5447 24.4804 39.5447 24.4804C39.5447 24.4804 39.4583 24.9113 40.3609 23.0141C40.3922 22.9485 40.4327 22.8904 40.4696 22.8304C40.5184 22.7985 40.5731 22.7516 40.6408 22.671C41.1984 22.0061 42.6973 21.6156 43.7368 21.6236C44.1748 21.6761 44.5418 21.7868 44.7609 21.9253C45.1712 22.5497 44.9291 24.8541 44.9291 24.8541C44.0644 24.9347 42.4161 25.3993 41.8318 25.4852C41.2472 25.5714 40.3596 29.3663 39.1256 28.9781C37.8917 28.5902 35.142 26.8654 35.142 26.6282C35.142 26.4216 35.358 23.9008 35.4144 23.2502C35.4186 23.2052 35.4219 23.1639 35.4253 23.1227C35.4258 23.1139 35.4267 23.1051 35.4279 23.0964L35.4276 23.097C35.4675 22.5846 35.4319 22.3607 35.1953 22.8722C34.9916 23.3121 34.1059 26.127 33.1181 29.1926C33.0139 29.4606 31.1473 35.1098 30.9023 35.7984C30.6098 36.5974 30.3641 37.209 30.1943 37.5253C29.9359 37.8754 29.5879 38.0946 29.1019 37.9476C27.8897 37.5812 26.3543 35.9059 26.34 35.4902C26.3109 33.1459 26.454 20.5408 25.8857 21.5914C25.3026 22.6684 20.7669 30.1429 20.7669 30.1429C20.691 30.1616 20.6348 30.1616 20.5678 30.1616C20.2468 30.126 19.7492 30.0229 19.6116 29.7146C19.6041 29.6959 19.5939 29.6809 19.5874 29.6621C19.5808 29.6434 19.5733 29.6209 19.5621 29.5871C19.5004 29.3814 19.4753 29.1579 19.4209 28.9749C19.218 28.2902 18.8934 27.3088 18.5528 26.3106C18.0308 24.6083 17.4926 22.8669 17.4039 22.6748C17.2309 22.2984 16.9787 22.4573 16.7524 22.6744C15.7399 23.5331 13.5896 27.3231 11.6477 27.5303" fill="white"/>
</g>
<defs>
<clipPath id="clip0_1_6">
<rect width="45" height="45" fill="white"/>
</clipPath>
</defs>
</svg>
